<svg width="30" height="29" viewBox="0 0 30 29" fill="none" xmlns="http://www.w3.org/2000/svg">
<path d="M15 19.528C18.1404 19.528 20.6861 16.9553 20.6861 13.7816C20.6861 10.608 18.1404 8.03528 15 8.03528C11.8597 8.03528 9.31396 10.608 9.31396 13.7816C9.31396 16.9553 11.8597 19.528 15 19.528Z" stroke="#2B2D42" stroke-miterlimit="10"/>
<path d="M22.707 7.3835C23.5236 7.3835 24.1856 6.71445 24.1856 5.88914C24.1856 5.06383 23.5236 4.39478 22.707 4.39478C21.8903 4.39478 21.2283 5.06383 21.2283 5.88914C21.2283 6.71445 21.8903 7.3835 22.707 7.3835Z" fill="#2B2D42"/>
<path d="M21.6638 1.42822H8.33608C5.23304 1.42822 2.71753 3.97041 2.71753 7.10637V20.5755C2.71753 23.7114 5.23304 26.2536 8.33608 26.2536H21.6638C24.7669 26.2536 27.2824 23.7114 27.2824 20.5755V7.10637C27.2824 3.97041 24.7669 1.42822 21.6638 1.42822Z" stroke="#2B2D42" stroke-miterlimit="10"/>
</svg>
