<svg width="28" height="27" viewBox="0 0 28 27" fill="none" xmlns="http://www.w3.org/2000/svg">
<path d="M16.4729 1.4707V1.50579" stroke="#F6E6D1" stroke-miterlimit="10"/>
<path d="M5.71531 7.47212C6.43019 7.47212 7.00972 6.89259 7.00972 6.17771C7.00972 5.46283 6.43019 4.8833 5.71531 4.8833C5.00043 4.8833 4.4209 5.46283 4.4209 6.17771C4.4209 6.89259 5.00043 7.47212 5.71531 7.47212Z" fill="#2B2D42"/>
<path d="M21.826 1.09229H7.1739C4.3674 1.09229 2.09229 3.3674 2.09229 6.1739V20.826C2.09229 23.6325 4.3674 25.9076 7.1739 25.9076H21.826C24.6325 25.9076 26.9076 23.6325 26.9076 20.826V6.1739C26.9076 3.3674 24.6325 1.09229 21.826 1.09229Z" stroke="#2B2D42" stroke-miterlimit="10"/>
<path d="M26.8947 20.8796C26.8947 23.6863 24.6198 25.9612 21.8131 25.9612H7.16096C4.35426 25.9612 2.07935 23.6863 2.07935 20.8796L2.10335 16.3907L6.67348 13.5951C7.49518 13.0928 8.55139 13.1981 9.25676 13.8518L11.3526 15.7943C11.72 16.1341 12.2832 16.147 12.6636 15.822L20.9471 8.7886C21.6358 8.20326 22.6569 8.2365 23.3051 8.86431L26.9205 12.3616L26.8947 20.8778V20.8796Z" fill="#2B2D42"/>
</svg>
